<svg width="42" height="43" viewBox="0 0 42 43" fill="none" xmlns="http://www.w3.org/2000/svg">
<rect x="0.5" y="0.845703" width="41" height="41" rx="11.5" fill="url(#paint0_linear_893_768)" fill-opacity="0.45"/>
<rect x="0.5" y="0.845703" width="41" height="41" rx="11.5" stroke="url(#paint1_linear_893_768)"/>
<g clip-path="url(#clip0_893_768)">
<path d="M21 12.3457C19.22 12.3457 17.4799 12.8735 15.9999 13.8625C14.5198 14.8514 13.3663 16.257 12.6851 17.9016C12.0039 19.5461 11.8257 21.3557 12.1729 23.1015C12.5202 24.8473 13.3774 26.451 14.636 27.7097C15.8947 28.9683 17.4984 29.8255 19.2442 30.1728C20.99 30.52 22.7996 30.3418 24.4442 29.6606C26.0887 28.9794 27.4943 27.8259 28.4832 26.3458C29.4722 24.8658 30 23.1257 30 21.3457C29.9974 18.9595 29.0484 16.6719 27.3611 14.9846C25.6738 13.2973 23.3862 12.3483 21 12.3457V12.3457ZM22.125 27.9945V26.9707C22.125 26.6723 22.0065 26.3862 21.7955 26.1752C21.5845 25.9642 21.2984 25.8457 21 25.8457C20.7016 25.8457 20.4155 25.9642 20.2045 26.1752C19.9935 26.3862 19.875 26.6723 19.875 26.9707V27.9945C18.4959 27.7585 17.2239 27.1005 16.2346 26.1112C15.2452 25.1218 14.5872 23.8498 14.3513 22.4707H15.375C15.6734 22.4707 15.9595 22.3522 16.1705 22.1412C16.3815 21.9302 16.5 21.6441 16.5 21.3457C16.5 21.0473 16.3815 20.7612 16.1705 20.5502C15.9595 20.3392 15.6734 20.2207 15.375 20.2207H14.3513C14.5872 18.8416 15.2452 17.5696 16.2346 16.5803C17.2239 15.5909 18.4959 14.9329 19.875 14.697V15.7207C19.875 16.0191 19.9935 16.3052 20.2045 16.5162C20.4155 16.7272 20.7016 16.8457 21 16.8457C21.2984 16.8457 21.5845 16.7272 21.7955 16.5162C22.0065 16.3052 22.125 16.0191 22.125 15.7207V14.697C23.5043 14.9325 24.7765 15.5903 25.7659 16.5798C26.7554 17.5692 27.4132 18.8414 27.6488 20.2207H26.625C26.3266 20.2207 26.0405 20.3392 25.8295 20.5502C25.6185 20.7612 25.5 21.0473 25.5 21.3457C25.5 21.6441 25.6185 21.9302 25.8295 22.1412C26.0405 22.3522 26.3266 22.4707 26.625 22.4707H27.6488C27.4132 23.85 26.7554 25.1222 25.7659 26.1116C24.7765 27.1011 23.5043 27.7589 22.125 27.9945V27.9945ZM24 21.3457C24 21.6441 23.8815 21.9302 23.6705 22.1412C23.4595 22.3522 23.1734 22.4707 22.875 22.4707H22.125V23.2207C22.125 23.5191 22.0065 23.8052 21.7955 24.0162C21.5845 24.2272 21.2984 24.3457 21 24.3457C20.7016 24.3457 20.4155 24.2272 20.2045 24.0162C19.9935 23.8052 19.875 23.5191 19.875 23.2207V22.4707H19.125C18.8266 22.4707 18.5405 22.3522 18.3295 22.1412C18.1185 21.9302 18 21.6441 18 21.3457C18 21.0473 18.1185 20.7612 18.3295 20.5502C18.5405 20.3392 18.8266 20.2207 19.125 20.2207H19.875V19.4707C19.875 19.1723 19.9935 18.8862 20.2045 18.6752C20.4155 18.4642 20.7016 18.3457 21 18.3457C21.2984 18.3457 21.5845 18.4642 21.7955 18.6752C22.0065 18.8862 22.125 19.1723 22.125 19.4707V20.2207H22.875C23.1734 20.2207 23.4595 20.3392 23.6705 20.5502C23.8815 20.7612 24 21.0473 24 21.3457V21.3457Z" fill="url(#paint2_linear_893_768)"/>
</g>
<defs>
<linearGradient id="paint0_linear_893_768" x1="42" y1="0.345706" x2="-8.54333" y2="24.3775" gradientUnits="userSpaceOnUse">
<stop stop-color="#5503D0"/>
<stop offset="1" stop-color="#5503D0" stop-opacity="0"/>
</linearGradient>
<linearGradient id="paint1_linear_893_768" x1="42" y1="0.345703" x2="9.99877" y2="30.7769" gradientUnits="userSpaceOnUse">
<stop stop-color="#5503D0"/>
<stop offset="1" stop-color="#5503D0" stop-opacity="0.2"/>
</linearGradient>
<linearGradient id="paint2_linear_893_768" x1="12" y1="21.3457" x2="30" y2="21.3457" gradientUnits="userSpaceOnUse">
<stop stop-color="#ED0C93"/>
<stop offset="1" stop-color="#C80CED"/>
</linearGradient>
<clipPath id="clip0_893_768">
<rect width="18" height="18" fill="white" transform="translate(12 12.3457)"/>
</clipPath>
</defs>
</svg>
