<svg width="42" height="43" viewBox="0 0 42 43" fill="none" xmlns="http://www.w3.org/2000/svg">
<rect x="0.5" y="0.845703" width="41" height="41" rx="11.5" fill="url(#paint0_linear_893_1447)" fill-opacity="0.45"/>
<rect x="0.5" y="0.845703" width="41" height="41" rx="11.5" stroke="url(#paint1_linear_893_1447)"/>
<g clip-path="url(#clip0_893_1447)">
<path d="M24 14.4082C24 16.0305 21.885 18.0465 20.8312 18.8917C20.6664 19.0239 20.4613 19.0959 20.25 19.0959C20.0387 19.0959 19.8336 19.0239 19.6688 18.8917C18.615 18.0457 16.5 16.0305 16.5 14.4082C16.4763 13.8864 16.6603 13.3764 17.0117 12.9899C17.3631 12.6034 17.8533 12.3717 18.375 12.3457C18.8967 12.3717 19.3869 12.6034 19.7383 12.9899C20.0897 13.3764 20.2737 13.8864 20.25 14.4082C20.2263 13.8864 20.4103 13.3764 20.7617 12.9899C21.1131 12.6034 21.6033 12.3717 22.125 12.3457C22.6467 12.3717 23.1369 12.6034 23.4883 12.9899C23.8397 13.3764 24.0237 13.8864 24 14.4082V14.4082ZM25.3635 27.654L29.2635 23.1967C29.7807 22.6228 30.0487 21.867 30.0086 21.0956C29.9685 20.3241 29.6236 19.6001 29.0497 19.083C28.4759 18.5658 27.7201 18.2978 26.9486 18.3378C26.1771 18.3779 25.4532 18.7228 24.936 19.2967L23.1075 21.306C22.6046 20.8475 21.9482 20.5941 21.2678 20.5957H15.375C14.4802 20.5967 13.6223 20.9526 12.9896 21.5853C12.3569 22.218 12.001 23.0759 12 23.9707V26.9707C12.001 27.8655 12.3569 28.7234 12.9896 29.3561C13.6223 29.9888 14.4802 30.3447 15.375 30.3457H19.4355C20.5584 30.3456 21.6683 30.1054 22.6907 29.6411C23.7131 29.1769 24.6244 28.4993 25.3635 27.654ZM21.2678 22.8457C21.3901 22.8448 21.5081 22.8905 21.5979 22.9735C21.6878 23.0566 21.7426 23.1706 21.7514 23.2926C21.7602 23.4146 21.7222 23.5354 21.6452 23.6304C21.5682 23.7254 21.4579 23.7875 21.3368 23.8042L17.466 24.357C17.1706 24.3991 16.9041 24.5569 16.725 24.7956C16.546 25.0343 16.4691 25.3343 16.5112 25.6297C16.5534 25.9251 16.7112 26.1916 16.9499 26.3707C17.1886 26.5497 17.4886 26.6266 17.784 26.5845L21.6555 26.0317C22.2426 25.9448 22.7859 25.6702 23.204 25.249C23.6222 24.8278 23.8927 24.2825 23.9753 23.6947L26.6002 20.8125C26.6588 20.748 26.7294 20.6958 26.8082 20.6587C26.8869 20.6216 26.9722 20.6004 27.0591 20.5963C27.146 20.5922 27.2329 20.6053 27.3148 20.6348C27.3966 20.6643 27.4719 20.7096 27.5363 20.7682C27.6656 20.8877 27.7424 21.0533 27.7502 21.2292C27.7579 21.4051 27.6958 21.5769 27.5775 21.7072L23.673 26.1735C23.1445 26.7774 22.493 27.2614 21.7622 27.5929C21.0313 27.9245 20.238 28.0959 19.4355 28.0957H15.375C15.0766 28.0957 14.7905 27.9772 14.5795 27.7662C14.3685 27.5552 14.25 27.2691 14.25 26.9707V23.9707C14.25 23.6723 14.3685 23.3862 14.5795 23.1752C14.7905 22.9642 15.0766 22.8457 15.375 22.8457H21.2678Z" fill="url(#paint2_linear_893_1447)"/>
</g>
<defs>
<linearGradient id="paint0_linear_893_1447" x1="42" y1="0.345706" x2="-8.54333" y2="24.3775" gradientUnits="userSpaceOnUse">
<stop stop-color="#5503D0"/>
<stop offset="1" stop-color="#5503D0" stop-opacity="0"/>
</linearGradient>
<linearGradient id="paint1_linear_893_1447" x1="42" y1="0.345703" x2="9.99877" y2="30.7769" gradientUnits="userSpaceOnUse">
<stop stop-color="#5503D0"/>
<stop offset="1" stop-color="#5503D0" stop-opacity="0.2"/>
</linearGradient>
<linearGradient id="paint2_linear_893_1447" x1="12" y1="21.3457" x2="30.0125" y2="21.3457" gradientUnits="userSpaceOnUse">
<stop stop-color="#ED0C93"/>
<stop offset="1" stop-color="#C80CED"/>
</linearGradient>
<clipPath id="clip0_893_1447">
<rect width="18" height="18" fill="white" transform="translate(12 12.3457)"/>
</clipPath>
</defs>
</svg>
