<svg width="42" height="43" viewBox="0 0 42 43" fill="none" xmlns="http://www.w3.org/2000/svg">
<rect x="0.5" y="0.845703" width="41" height="41" rx="11.5" fill="url(#paint0_linear_893_1655)" fill-opacity="0.45"/>
<rect x="0.5" y="0.845703" width="41" height="41" rx="11.5" stroke="url(#paint1_linear_893_1655)"/>
<g clip-path="url(#clip0_893_1655)">
<path d="M29.9998 15.3012C30.0037 14.9114 29.9295 14.5247 29.7815 14.164C29.6335 13.8033 29.4147 13.4759 29.138 13.2012C28.5889 12.6566 27.8481 12.3488 27.0747 12.3441C26.3013 12.3393 25.5568 12.6379 25.001 13.1757L17.3728 20.6202C16.7629 20.6008 16.1556 20.7064 15.5881 20.9304C15.0206 21.1545 14.5049 21.4922 14.0728 21.923C12.86 23.1372 12.1843 26.252 12.026 27.3507C11.9722 27.7236 11.9991 28.1038 12.1049 28.4654C12.2108 28.827 12.3931 29.1616 12.6395 29.4467C12.8859 29.7317 13.1907 29.9605 13.5332 30.1175C13.8757 30.2745 14.248 30.3561 14.6248 30.3567C14.7535 30.3568 14.8821 30.3475 15.0095 30.329C16.1068 30.1715 19.2208 29.4965 20.4358 28.2815C20.9082 27.8055 21.2675 27.2293 21.4871 26.5956C21.7066 25.9619 21.7808 25.287 21.704 24.6207L29.114 17.39C29.3935 17.1185 29.6159 16.7939 29.768 16.4351C29.9201 16.0764 29.9989 15.6909 29.9998 15.3012V15.3012ZM18.842 26.6907C18.353 27.179 16.3325 27.8652 14.6863 28.1022C14.6274 28.1114 14.5672 28.1066 14.5105 28.0882C14.4539 28.0697 14.4024 28.0382 14.3602 27.9961C14.3181 27.954 14.2864 27.9025 14.2679 27.8459C14.2493 27.7893 14.2444 27.7291 14.2535 27.6702C14.4905 26.0202 15.1768 24.0027 15.665 23.5137C16.0868 23.0933 16.658 22.8572 17.2535 22.8572C17.849 22.8572 18.4202 23.0933 18.842 23.5137C19.0969 23.7729 19.2844 24.0907 19.388 24.4392C19.4014 24.5311 19.4266 24.6208 19.463 24.7062C19.5272 25.0626 19.5042 25.4291 19.3961 25.7747C19.2879 26.1202 19.0978 26.4345 18.842 26.6907V26.6907ZM27.542 15.779L20.792 22.3632C20.6818 22.2089 20.5618 22.0619 20.4328 21.923C20.2366 21.7287 20.0229 21.553 19.7945 21.398L26.5723 14.7875C26.7032 14.6606 26.8787 14.5901 27.061 14.5912C27.2433 14.5923 27.4179 14.665 27.5473 14.7935C27.6122 14.8582 27.6636 14.9352 27.6986 15.0201C27.7335 15.1049 27.7512 15.1958 27.7506 15.2875C27.7501 15.3792 27.7313 15.4699 27.6953 15.5543C27.6594 15.6386 27.607 15.715 27.5413 15.779H27.542Z" fill="url(#paint2_linear_893_1655)"/>
</g>
<defs>
<linearGradient id="paint0_linear_893_1655" x1="42" y1="0.345706" x2="-8.54333" y2="24.3775" gradientUnits="userSpaceOnUse">
<stop stop-color="#5503D0"/>
<stop offset="1" stop-color="#5503D0" stop-opacity="0"/>
</linearGradient>
<linearGradient id="paint1_linear_893_1655" x1="42" y1="0.345703" x2="9.99877" y2="30.7769" gradientUnits="userSpaceOnUse">
<stop stop-color="#5503D0"/>
<stop offset="1" stop-color="#5503D0" stop-opacity="0.2"/>
</linearGradient>
<linearGradient id="paint2_linear_893_1655" x1="11.999" y1="21.3504" x2="29.9999" y2="21.3504" gradientUnits="userSpaceOnUse">
<stop stop-color="#ED0C93"/>
<stop offset="1" stop-color="#C80CED"/>
</linearGradient>
<clipPath id="clip0_893_1655">
<rect width="18" height="18" fill="white" transform="translate(12 12.3457)"/>
</clipPath>
</defs>
</svg>
