<svg width="42" height="43" viewBox="0 0 42 43" fill="none" xmlns="http://www.w3.org/2000/svg">
<rect x="0.5" y="0.845703" width="41" height="41" rx="11.5" fill="url(#paint0_linear_893_892)" fill-opacity="0.45"/>
<rect x="0.5" y="0.845703" width="41" height="41" rx="11.5" stroke="url(#paint1_linear_893_892)"/>
<g clip-path="url(#clip0_893_892)">
<path d="M29.671 28.4299L26.1871 24.9445C28.7939 21.4609 28.0831 16.5237 24.5996 13.9169C21.116 11.3101 16.1787 12.0209 13.5719 15.5045C10.9651 18.9881 11.6759 23.9253 15.1595 26.5321C17.9578 28.6261 21.8012 28.6261 24.5996 26.5321L28.0849 30.0174C28.5229 30.4554 29.233 30.4554 29.671 30.0174C30.109 29.5794 30.109 28.8693 29.671 28.4314L29.671 28.4299ZM19.9086 25.8594C16.8125 25.8594 14.3027 23.3496 14.3027 20.2536C14.3027 17.1575 16.8125 14.6477 19.9086 14.6477C23.0046 14.6477 25.5144 17.1575 25.5144 20.2536C25.5111 23.3482 23.0033 25.8561 19.9086 25.8594Z" fill="url(#paint2_linear_893_892)"/>
</g>
<defs>
<linearGradient id="paint0_linear_893_892" x1="42" y1="0.345706" x2="-8.54333" y2="24.3775" gradientUnits="userSpaceOnUse">
<stop stop-color="#5503D0"/>
<stop offset="1" stop-color="#5503D0" stop-opacity="0"/>
</linearGradient>
<linearGradient id="paint1_linear_893_892" x1="42" y1="0.345703" x2="9.99877" y2="30.7769" gradientUnits="userSpaceOnUse">
<stop stop-color="#5503D0"/>
<stop offset="1" stop-color="#5503D0" stop-opacity="0.2"/>
</linearGradient>
<linearGradient id="paint2_linear_893_892" x1="12.001" y1="21.3459" x2="29.9995" y2="21.3459" gradientUnits="userSpaceOnUse">
<stop stop-color="#ED0C93"/>
<stop offset="1" stop-color="#C80CED"/>
</linearGradient>
<clipPath id="clip0_893_892">
<rect width="18" height="18" fill="white" transform="translate(12 12.3457)"/>
</clipPath>
</defs>
</svg>
