<svg width="72" height="73" viewBox="0 0 72 73" fill="none" xmlns="http://www.w3.org/2000/svg">
<rect x="0.5" y="1.13989" width="71" height="71" rx="15.5" stroke="white"/>
<path fill-rule="evenodd" clip-rule="evenodd" d="M31 21.6399C28.24 21.6399 26 23.8799 26 26.6399C26 29.3862 28.2178 31.6177 30.9589 31.6397C28.2178 31.6619 26 33.8932 26 36.6396C26 39.3995 28.24 41.6395 31 41.6395H36V36.6477C36.0044 39.4039 38.2426 41.6395 41 41.6395C43.7599 41.6395 46 39.3995 46 36.6396C46 33.8931 43.7819 31.6617 41.0406 31.6397C43.7819 31.6179 46 29.3864 46 26.6399C46 23.8799 43.7599 21.6399 41 21.6399H31ZM40.9419 31.6399H36V36.6315C36.0043 33.8946 38.2113 31.6711 40.9419 31.6399Z" fill="white"/>
<path d="M31 51.6399C33.76 51.6399 36 49.3999 36 46.6398V41.6395H31C28.24 41.6395 26 43.8799 26 46.6398C26 49.3999 28.24 51.6399 31 51.6399Z" fill="white"/>
</svg>
