<svg width="72" height="73" viewBox="0 0 72 73" fill="none" xmlns="http://www.w3.org/2000/svg">
<g clip-path="url(#clip0_808_5191)">
<path d="M56 1.13989H16C7.43959 1.13989 0.5 8.07948 0.5 16.6399V56.6399C0.5 65.2003 7.43959 72.1399 16 72.1399H56C64.5604 72.1399 71.5 65.2003 71.5 56.6399V16.6399C71.5 8.07948 64.5604 1.13989 56 1.13989Z" stroke="white"/>
<path d="M29.0251 45.1738C34.0096 45.1738 38.0499 41.1053 38.0499 36.0868C38.0499 31.0683 34.0093 27 29.0251 27C24.041 27 20 31.0683 20 36.0868C20 41.1053 24.0407 45.1738 29.0251 45.1738ZM43.4376 44.6415C45.9298 44.6415 47.9503 40.8118 47.9503 36.0868C47.9503 31.3629 45.9301 27.532 43.4379 27.532C40.9458 27.532 38.9253 31.3629 38.9253 36.0868C38.9253 40.8106 40.9455 44.6415 43.4376 44.6415ZM50.413 43.7505C51.2893 43.7505 52 40.3194 52 36.0868C52 31.8554 51.2896 28.423 50.413 28.423C49.5364 28.423 48.8262 31.8545 48.8262 36.0868C48.8262 40.3191 49.5367 43.7505 50.413 43.7505Z" fill="white"/>
</g>
<defs>
<clipPath id="clip0_808_5191">
<rect width="72" height="73" fill="white"/>
</clipPath>
</defs>
</svg>
