<svg width="72" height="73" viewBox="0 0 72 73" fill="none" xmlns="http://www.w3.org/2000/svg">
<g clip-path="url(#clip0_807_5122)">
<path d="M56 1.13989H16C7.43959 1.13989 0.5 8.07948 0.5 16.6399V56.6399C0.5 65.2003 7.43959 72.1399 16 72.1399H56C64.5604 72.1399 71.5 65.2003 71.5 56.6399V16.6399C71.5 8.07948 64.5604 1.13989 56 1.13989Z" stroke="white"/>
<path fill-rule="evenodd" clip-rule="evenodd" d="M39.8733 22.5216C51.1091 25.5374 53.1068 30.9625 50.4543 40.8799C47.8017 50.7963 43.3628 54.4941 32.127 51.4783C20.8911 48.4625 18.8935 43.0373 21.546 33.12C24.1985 23.2046 28.6374 19.5058 39.8733 22.5216ZM28.2635 37.1695C26.8375 34.1837 26.7726 31.2561 28.5144 29.5142C30.2563 27.7724 33.1839 27.8373 36.1697 29.2623C39.1545 27.8373 42.0821 27.7724 43.824 29.5142C45.5658 31.2561 45.5009 34.1837 44.0759 37.1695C45.5009 40.1543 45.5658 43.0819 43.824 44.8238C42.0821 46.5656 39.1545 46.5007 36.1697 45.0757C33.1839 46.5007 30.2563 46.5656 28.5144 44.8238C26.7726 43.0819 26.8375 40.1543 28.2625 37.1695H28.2635ZM29.6624 34.8221C30.2388 34.0231 30.879 33.2721 31.5767 32.5765C32.2723 31.8788 33.0233 31.2386 33.8223 30.6622C32.2016 30.1711 30.8124 30.2786 30.0451 31.0449C29.2788 31.8122 29.1713 33.2014 29.6624 34.8231V34.8221ZM42.676 39.5159C42.0999 40.3152 41.46 41.0665 40.7626 41.7624C40.0667 42.4598 39.3154 43.0997 38.5161 43.6758C40.1378 44.1669 41.526 44.0604 42.2933 43.2931C43.0606 42.5258 43.1671 41.1376 42.676 39.5159ZM29.6624 39.5159C29.1713 41.1376 29.2788 42.5258 30.0451 43.2931C30.8124 44.0604 32.2016 44.1669 33.8233 43.6758C33.0237 43.0998 32.272 42.4599 31.5758 41.7624C30.8784 41.0665 30.2385 40.3152 29.6624 39.5159ZM30.7155 37.1695C31.3806 38.2866 32.1843 39.3152 33.1074 40.2308C34.0229 41.1542 35.0515 41.9582 36.1687 42.6237C37.2862 41.9583 38.3152 41.1543 39.231 40.2308C40.1544 39.3153 40.9584 38.2867 41.6239 37.1695C40.9585 36.052 40.1545 35.023 39.231 34.1072C38.3155 33.1838 37.2869 32.3798 36.1697 31.7143C35.0522 32.3797 34.0232 33.1837 33.1074 34.1072C32.184 35.0227 31.38 36.0513 30.7145 37.1685L30.7155 37.1695ZM38.5161 30.6622C39.3154 31.2386 40.0667 31.8788 40.7626 32.5765C41.46 33.2722 42.0999 34.0232 42.676 34.8221C43.1671 33.2014 43.0606 31.8122 42.2933 31.0449C41.526 30.2786 40.1378 30.1711 38.5161 30.6622Z" fill="white"/>
</g>
<defs>
<clipPath id="clip0_807_5122">
<rect width="72" height="73" fill="white"/>
</clipPath>
</defs>
</svg>
