<svg width="72" height="73" viewBox="0 0 72 73" fill="none" xmlns="http://www.w3.org/2000/svg">
<rect x="0.5" y="1.13989" width="71" height="71" rx="15.5" stroke="white"/>
<path fill-rule="evenodd" clip-rule="evenodd" d="M44.5011 21.6399H27.4989C23.9121 21.6399 21 24.552 21 28.1387V45.1409C21 48.7277 23.9121 51.6399 27.4989 51.6399H44.5011C48.0878 51.6399 51 48.7277 51 45.1409V28.1387C51 24.552 48.0878 21.6399 44.5011 21.6399ZM38.5525 25.3867H41.8463L47.8837 29.1332L41.8463 47.8933H38.5525L41.2958 30.7492L35.2586 47.8933H31.9648L34.9834 31.8147L28.6708 47.8933H25.377L28.6708 32.8889L25.377 25.3867H28.6708L34.9834 31.2819L31.9648 25.3867H35.2586L41.2958 30.2077L38.5525 25.3867Z" fill="white"/>
</svg>
