<svg width="72" height="73" viewBox="0 0 72 73" fill="none" xmlns="http://www.w3.org/2000/svg">
<g clip-path="url(#clip0_807_5128)">
<path d="M56 1.13989H16C7.43959 1.13989 0.5 8.07948 0.5 16.6399V56.6399C0.5 65.2003 7.43959 72.1399 16 72.1399H56C64.5604 72.1399 71.5 65.2003 71.5 56.6399V16.6399C71.5 8.07948 64.5604 1.13989 56 1.13989Z" stroke="white"/>
<path d="M52 35.5H44V43.5H52V35.5Z" fill="white"/>
<path d="M20 43.5V36.4567L27.9567 28.5H35V35.5433L27.0433 43.5H20Z" fill="white"/>
<path d="M32 43.5V36.4567L39.9567 28.5H47V35.5433L39.0433 43.5H32Z" fill="white"/>
</g>
<defs>
<clipPath id="clip0_807_5128">
<rect width="72" height="73" fill="white"/>
</clipPath>
</defs>
</svg>
