<svg width="72" height="73" viewBox="0 0 72 73" fill="none" xmlns="http://www.w3.org/2000/svg">
<rect x="0.5" y="1.13989" width="71" height="71" rx="15.5" stroke="white"/>
<path fill-rule="evenodd" clip-rule="evenodd" d="M26.5007 26.8928C27.4446 27.6503 27.7861 27.5905 29.5534 27.4709L46.2022 26.4743C46.5637 26.4743 46.2625 26.1155 46.142 26.0756L43.3705 24.1023C42.8483 23.7036 42.1254 23.2252 40.7797 23.3448L24.6732 24.5208C24.0908 24.5806 23.9702 24.8796 24.2113 25.0989L26.5007 26.8928ZM27.5048 30.7398V48.1212C27.5048 49.0581 27.9668 49.3969 29.0312 49.3371L47.3268 48.2807C48.3912 48.2209 48.5118 47.583 48.5118 46.8256V29.5638C48.5118 28.8064 48.2105 28.3877 47.5678 28.4476L28.4488 29.5638C27.7459 29.6236 27.5048 29.9824 27.5048 30.7398ZM45.5595 31.6767C45.68 32.1949 45.5595 32.7332 45.0374 32.7929L44.1538 32.9723V45.809C43.3906 46.2077 42.6877 46.4468 42.0852 46.4468C41.1413 46.4468 40.9003 46.1478 40.1974 45.2708L34.4335 36.2812V44.9718L36.2611 45.3704C36.2611 45.3704 36.2611 46.427 34.7951 46.427L30.7382 46.6661C30.6178 46.427 30.7382 45.8488 31.1399 45.7293L32.2043 45.4303V33.9491L30.7382 33.8294C30.6178 33.3112 30.919 32.5538 31.7424 32.4939L36.1004 32.1949L42.1052 41.2843V33.2514L40.579 33.0719C40.4584 32.4341 40.9404 31.9558 41.5229 31.896L45.5595 31.6767ZM23.3276 22.9262L40.097 21.7103C42.1454 21.5309 42.6877 21.6506 43.973 22.5874L49.3151 26.3148C50.1987 26.9527 50.5 27.1321 50.5 27.8297V48.3006C50.5 49.5763 50.038 50.3337 48.3912 50.4534L28.9307 51.6293C27.6857 51.6892 27.1032 51.5098 26.4606 50.6925L22.5042 45.6097C21.8013 44.6729 21.5 43.9752 21.5 43.158V24.9593C21.5 23.9029 21.982 23.0458 23.3276 22.9262Z" fill="white"/>
</svg>
