<svg width="72" height="73" viewBox="0 0 72 73" fill="none" xmlns="http://www.w3.org/2000/svg">
<g clip-path="url(#clip0_808_5153)">
<path d="M56 1.13989H16C7.43959 1.13989 0.5 8.07948 0.5 16.6399V56.6399C0.5 65.2003 7.43959 72.1399 16 72.1399H56C64.5604 72.1399 71.5 65.2003 71.5 56.6399V16.6399C71.5 8.07948 64.5604 1.13989 56 1.13989Z" stroke="white"/>
<path d="M37.2365 38.3265C37.9808 45.822 44.3067 51.6755 52 51.6755V22C44.3067 22 37.9808 27.8535 37.2365 35.349V22C31.5265 22 26.8204 27.7324 26.1824 35.119V22C22.7672 22 20 28.6423 20 36.8377C20 45.0331 22.7672 51.6755 26.1824 51.6755V38.5564C26.8204 45.9431 31.5265 51.6755 37.2365 51.6755V38.3265Z" fill="white"/>
</g>
<defs>
<clipPath id="clip0_808_5153">
<rect width="72" height="73" fill="white"/>
</clipPath>
</defs>
</svg>
