<svg width="192" height="38" viewBox="0 0 192 38" fill="none" xmlns="http://www.w3.org/2000/svg">
<path d="M28.4946 27.7397L28.4946 27.7397L17.7446 33.9631C16.5079 34.679 14.9839 34.679 13.7472 33.9631L2.99715 27.7397L2.99712 27.7397C1.76177 27.0246 1 25.7031 1 24.2722V11.7279C1 10.2969 1.76177 8.97544 2.99715 8.26027L2.49614 7.39483L2.99715 8.26027L13.7472 2.03696L13.2462 1.17152L13.7472 2.03696C14.9839 1.32101 16.5079 1.32101 17.7446 2.03696L28.4946 8.26027L28.9956 7.39483L28.4946 8.26028C29.73 8.97547 30.4918 10.297 30.4918 11.7279V24.2722C30.4918 25.7031 29.73 27.0246 28.4946 27.7397Z" fill="url(#paint0_linear_190_820)" fill-opacity="0.2" stroke="url(#paint1_linear_190_820)" stroke-width="2"/>
<path opacity="0.8" d="M23.1122 23.7064L23.1122 23.7064L16.9694 27.2626C16.2122 27.7009 15.2792 27.7009 14.5221 27.2626C14.5221 27.2626 14.522 27.2626 14.522 27.2626L8.37915 23.7064L8.37914 23.7064C7.62287 23.2686 7.1567 22.4597 7.1567 21.5841V14.4159C7.1567 13.5403 7.62287 12.7314 8.37915 12.2936L14.5221 8.73739L14.3174 8.38383L14.5221 8.73739C15.2792 8.29907 16.2122 8.29907 16.9694 8.73739L23.1122 12.2936L23.3114 11.9496L23.1122 12.2936C23.8685 12.7314 24.3347 13.5403 24.3347 14.4159V21.5841C24.3347 22.4597 23.8685 23.2686 23.1122 23.7064Z" fill="url(#paint2_linear_190_820)" stroke="url(#paint3_linear_190_820)" stroke-width="0.817308"/>
<path d="M50.8312 5.95312C50.7649 5.33286 50.4855 4.84991 49.9931 4.50426C49.5054 4.15862 48.871 3.9858 48.0897 3.9858C47.5405 3.9858 47.0694 4.06866 46.6764 4.23438C46.2834 4.40009 45.9827 4.625 45.7744 4.90909C45.566 5.19318 45.4595 5.51752 45.4548 5.8821C45.4548 6.18513 45.5234 6.44792 45.6607 6.67045C45.8028 6.89299 45.9945 7.08239 46.236 7.23864C46.4775 7.39015 46.745 7.51799 47.0386 7.62216C47.3321 7.72633 47.6281 7.81392 47.9264 7.88494L49.29 8.22585C49.8392 8.35369 50.3672 8.52651 50.8738 8.74432C51.3852 8.96212 51.8421 9.23674 52.2445 9.56818C52.6517 9.89962 52.9737 10.2997 53.2104 10.7685C53.4472 11.2372 53.5656 11.7865 53.5656 12.4162C53.5656 13.2685 53.3478 14.0189 52.9122 14.6676C52.4765 15.3116 51.8468 15.8158 51.0229 16.1804C50.2038 16.5402 49.2119 16.7202 48.0471 16.7202C46.9155 16.7202 45.933 16.545 45.0997 16.1946C44.2711 15.8442 43.6224 15.3329 43.1536 14.6605C42.6896 13.9882 42.4387 13.169 42.4008 12.2031H44.9931C45.031 12.7098 45.1872 13.1312 45.4619 13.4673C45.7365 13.8035 46.094 14.0545 46.5343 14.2202C46.9794 14.3859 47.4765 14.4688 48.0258 14.4688C48.5987 14.4688 49.1006 14.3835 49.5315 14.2131C49.9671 14.0379 50.308 13.7964 50.5542 13.4886C50.8004 13.1761 50.9259 12.8116 50.9306 12.3949C50.9259 12.0161 50.8146 11.7036 50.5968 11.4574C50.379 11.2064 50.0736 10.9981 49.6806 10.8324C49.2924 10.6619 48.8378 10.5104 48.317 10.3778L46.6622 9.9517C45.4642 9.64394 44.5173 9.17756 43.8212 8.55256C43.13 7.92282 42.7843 7.08712 42.7843 6.04545C42.7843 5.18845 43.0163 4.43797 43.4803 3.79403C43.9491 3.15009 44.5859 2.65057 45.3908 2.29545C46.1958 1.93561 47.1072 1.75568 48.1252 1.75568C49.1574 1.75568 50.0618 1.93561 50.8383 2.29545C51.6195 2.65057 52.2327 3.14536 52.6778 3.77983C53.1229 4.40956 53.3525 5.134 53.3667 5.95312H50.8312ZM58.9402 16.7202C58.2489 16.7202 57.6263 16.5971 57.0723 16.3509C56.5231 16.0999 56.0875 15.7306 55.7655 15.2429C55.4483 14.7552 55.2896 14.1539 55.2896 13.4389C55.2896 12.8234 55.4033 12.3144 55.6305 11.9119C55.8578 11.5095 56.168 11.1875 56.5609 10.946C56.9539 10.7045 57.3966 10.5223 57.8891 10.3991C58.3862 10.2713 58.9 10.179 59.4303 10.1222C60.0695 10.0559 60.5879 9.99669 60.9857 9.9446C61.3834 9.88778 61.6722 9.80256 61.8521 9.68892C62.0368 9.57055 62.1291 9.38826 62.1291 9.14205V9.09943C62.1291 8.56439 61.9705 8.15009 61.6533 7.85653C61.336 7.56297 60.8791 7.41619 60.2825 7.41619C59.6528 7.41619 59.1533 7.5535 58.784 7.82812C58.4194 8.10275 58.1732 8.42708 58.0453 8.80114L55.6448 8.46023C55.8341 7.79735 56.1466 7.24337 56.5823 6.7983C57.0179 6.34848 57.5505 6.01231 58.1803 5.78977C58.81 5.5625 59.506 5.44886 60.2683 5.44886C60.7939 5.44886 61.3171 5.51042 61.8379 5.63352C62.3588 5.75663 62.8346 5.96023 63.2655 6.24432C63.6964 6.52367 64.042 6.90483 64.3024 7.38778C64.5676 7.87074 64.7002 8.47443 64.7002 9.19886V16.5H62.2286V15.0014H62.1433C61.9871 15.3045 61.7669 15.5885 61.4828 15.8537C61.2035 16.1141 60.8507 16.3248 60.4246 16.4858C60.0032 16.642 59.5084 16.7202 58.9402 16.7202ZM59.6078 14.831C60.1239 14.831 60.5714 14.7292 60.9502 14.5256C61.3289 14.3172 61.6201 14.0426 61.8237 13.7017C62.0321 13.3608 62.1362 12.9891 62.1362 12.5866V11.3011C62.0557 11.3674 61.9184 11.429 61.7243 11.4858C61.5349 11.5426 61.3218 11.5923 61.0851 11.6349C60.8484 11.6776 60.614 11.7154 60.382 11.7486C60.15 11.7817 59.9487 11.8101 59.7783 11.8338C59.3948 11.8859 59.0515 11.9711 58.7484 12.0895C58.4454 12.2079 58.2063 12.3736 58.0311 12.5866C57.8559 12.795 57.7683 13.0649 57.7683 13.3963C57.7683 13.8698 57.9412 14.2273 58.2868 14.4688C58.6324 14.7102 59.0728 14.831 59.6078 14.831ZM68.4928 20.5909C68.1424 20.5909 67.818 20.5625 67.5198 20.5057C67.2262 20.4536 66.9918 20.392 66.8166 20.321L67.4132 18.3182C67.7873 18.4271 68.1211 18.4792 68.4146 18.4744C68.7082 18.4697 68.9662 18.3774 69.1888 18.1974C69.4161 18.0223 69.6078 17.7287 69.7641 17.3168L69.9842 16.7273L66.0283 5.59091H68.7555L71.2698 13.8295H71.3834L73.9047 5.59091H76.6391L72.2712 17.821C72.0676 18.3987 71.7977 18.8935 71.4615 19.3054C71.1253 19.7221 70.7134 20.0393 70.2257 20.2571C69.7428 20.4796 69.1651 20.5909 68.4928 20.5909ZM82.8766 16.7131C81.7829 16.7131 80.8383 16.4858 80.0428 16.0312C79.2521 15.572 78.6437 14.9233 78.2176 14.0852C77.7914 13.2424 77.5783 12.2505 77.5783 11.1094C77.5783 9.98722 77.7914 9.00237 78.2176 8.15483C78.6484 7.30256 79.2497 6.63968 80.0215 6.16619C80.7933 5.68797 81.7 5.44886 82.7417 5.44886C83.414 5.44886 84.0485 5.55777 84.6451 5.77557C85.2464 5.98864 85.7767 6.32008 86.236 6.76989C86.7 7.2197 87.0646 7.79261 87.3298 8.48864C87.5949 9.17992 87.7275 10.0038 87.7275 10.9602V11.7486H78.7857V10.0156H85.263C85.2583 9.5232 85.1517 9.08523 84.9434 8.7017C84.7351 8.31345 84.4439 8.00805 84.0698 7.78551C83.7005 7.56297 83.2696 7.4517 82.7772 7.4517C82.2516 7.4517 81.79 7.57955 81.3923 7.83523C80.9945 8.08617 80.6844 8.41761 80.4619 8.82955C80.2441 9.23674 80.1328 9.68419 80.1281 10.1719V11.6847C80.1281 12.3191 80.2441 12.8636 80.4761 13.3182C80.7081 13.768 81.0324 14.1136 81.4491 14.3551C81.8658 14.5919 82.3534 14.7102 82.9122 14.7102C83.2862 14.7102 83.6247 14.6581 83.9278 14.554C84.2308 14.4451 84.4936 14.2865 84.7161 14.0781C84.9387 13.8698 85.1068 13.6117 85.2204 13.304L87.621 13.5739C87.4694 14.2083 87.1806 14.7623 86.7545 15.2358C86.3331 15.7045 85.7933 16.0691 85.1352 16.3295C84.477 16.5852 83.7242 16.7131 82.8766 16.7131ZM93.9509 16.6918C93.0939 16.6918 92.3268 16.4716 91.6497 16.0312C90.9726 15.5909 90.4376 14.9517 90.0446 14.1136C89.6516 13.2756 89.4551 12.2576 89.4551 11.0597C89.4551 9.84754 89.654 8.82481 90.0517 7.99148C90.4542 7.15341 90.9963 6.52131 91.6781 6.09517C92.36 5.6643 93.1199 5.44886 93.958 5.44886C94.5972 5.44886 95.1227 5.55777 95.5347 5.77557C95.9466 5.98864 96.2733 6.24669 96.5148 6.54972C96.7563 6.84801 96.9433 7.12973 97.0759 7.39489H97.1824V1.95455H99.7605V16.5H97.2321V14.7812H97.0759C96.9433 15.0464 96.7515 15.3281 96.5006 15.6264C96.2496 15.92 95.9182 16.1709 95.5063 16.3793C95.0943 16.5876 94.5759 16.6918 93.9509 16.6918ZM94.6682 14.5824C95.2127 14.5824 95.6767 14.4356 96.0602 14.142C96.4438 13.8437 96.735 13.4295 96.9338 12.8991C97.1327 12.3688 97.2321 11.7509 97.2321 11.0455C97.2321 10.34 97.1327 9.7268 96.9338 9.20597C96.7397 8.68513 96.4509 8.2803 96.0673 7.99148C95.6886 7.70265 95.2222 7.55824 94.6682 7.55824C94.0953 7.55824 93.6171 7.70739 93.2335 8.00568C92.85 8.30398 92.5612 8.71591 92.3671 9.24148C92.1729 9.76705 92.0759 10.3684 92.0759 11.0455C92.0759 11.7273 92.1729 12.3357 92.3671 12.8707C92.5659 13.401 92.8571 13.8201 93.2406 14.1278C93.6289 14.4309 94.1047 14.5824 94.6682 14.5824ZM109.443 16.5H106.63L111.751 1.95455H115.004L120.132 16.5H117.319L113.434 4.9375H113.321L109.443 16.5ZM109.535 10.7969H117.205V12.9134H109.535V10.7969ZM122.047 16.5V1.95455H124.618V7.39489H124.725C124.858 7.12973 125.045 6.84801 125.286 6.54972C125.528 6.24669 125.854 5.98864 126.266 5.77557C126.678 5.55777 127.204 5.44886 127.843 5.44886C128.686 5.44886 129.446 5.6643 130.123 6.09517C130.805 6.52131 131.344 7.15341 131.742 7.99148C132.145 8.82481 132.346 9.84754 132.346 11.0597C132.346 12.2576 132.149 13.2756 131.756 14.1136C131.363 14.9517 130.828 15.5909 130.151 16.0312C129.474 16.4716 128.707 16.6918 127.85 16.6918C127.225 16.6918 126.707 16.5876 126.295 16.3793C125.883 16.1709 125.551 15.92 125.3 15.6264C125.054 15.3281 124.862 15.0464 124.725 14.7812H124.576V16.5H122.047ZM124.569 11.0455C124.569 11.7509 124.668 12.3688 124.867 12.8991C125.071 13.4295 125.362 13.8437 125.741 14.142C126.124 14.4356 126.588 14.5824 127.133 14.5824C127.701 14.5824 128.177 14.4309 128.56 14.1278C128.944 13.8201 129.233 13.401 129.427 12.8707C129.626 12.3357 129.725 11.7273 129.725 11.0455C129.725 10.3684 129.628 9.76705 129.434 9.24148C129.24 8.71591 128.951 8.30398 128.567 8.00568C128.184 7.70739 127.706 7.55824 127.133 7.55824C126.583 7.55824 126.117 7.70265 125.734 7.99148C125.35 8.2803 125.059 8.68513 124.86 9.20597C124.666 9.7268 124.569 10.34 124.569 11.0455ZM138.58 16.6918C137.723 16.6918 136.956 16.4716 136.279 16.0312C135.602 15.5909 135.067 14.9517 134.674 14.1136C134.281 13.2756 134.084 12.2576 134.084 11.0597C134.084 9.84754 134.283 8.82481 134.681 7.99148C135.083 7.15341 135.625 6.52131 136.307 6.09517C136.989 5.6643 137.749 5.44886 138.587 5.44886C139.226 5.44886 139.752 5.55777 140.164 5.77557C140.576 5.98864 140.902 6.24669 141.144 6.54972C141.385 6.84801 141.572 7.12973 141.705 7.39489H141.811V1.95455H144.389V16.5H141.861V14.7812H141.705C141.572 15.0464 141.38 15.3281 141.129 15.6264C140.879 15.92 140.547 16.1709 140.135 16.3793C139.723 16.5876 139.205 16.6918 138.58 16.6918ZM139.297 14.5824C139.842 14.5824 140.306 14.4356 140.689 14.142C141.073 13.8437 141.364 13.4295 141.563 12.8991C141.762 12.3688 141.861 11.7509 141.861 11.0455C141.861 10.34 141.762 9.7268 141.563 9.20597C141.369 8.68513 141.08 8.2803 140.696 7.99148C140.317 7.70265 139.851 7.55824 139.297 7.55824C138.724 7.55824 138.246 7.70739 137.862 8.00568C137.479 8.30398 137.19 8.71591 136.996 9.24148C136.802 9.76705 136.705 10.3684 136.705 11.0455C136.705 11.7273 136.802 12.3357 136.996 12.8707C137.195 13.401 137.486 13.8201 137.87 14.1278C138.258 14.4309 138.734 14.5824 139.297 14.5824ZM151.959 16.7131C150.865 16.7131 149.92 16.4858 149.125 16.0312C148.334 15.572 147.726 14.9233 147.3 14.0852C146.873 13.2424 146.66 12.2505 146.66 11.1094C146.66 9.98722 146.873 9.00237 147.3 8.15483C147.73 7.30256 148.332 6.63968 149.104 6.16619C149.875 5.68797 150.782 5.44886 151.824 5.44886C152.496 5.44886 153.131 5.55777 153.727 5.77557C154.328 5.98864 154.859 6.32008 155.318 6.76989C155.782 7.2197 156.147 7.79261 156.412 8.48864C156.677 9.17992 156.81 10.0038 156.81 10.9602V11.7486H147.868V10.0156H154.345C154.34 9.5232 154.234 9.08523 154.025 8.7017C153.817 8.31345 153.526 8.00805 153.152 7.78551C152.783 7.56297 152.352 7.4517 151.859 7.4517C151.334 7.4517 150.872 7.57955 150.474 7.83523C150.077 8.08617 149.766 8.41761 149.544 8.82955C149.326 9.23674 149.215 9.68419 149.21 10.1719V11.6847C149.21 12.3191 149.326 12.8636 149.558 13.3182C149.79 13.768 150.114 14.1136 150.531 14.3551C150.948 14.5919 151.435 14.7102 151.994 14.7102C152.368 14.7102 152.707 14.6581 153.01 14.554C153.313 14.4451 153.576 14.2865 153.798 14.0781C154.021 13.8698 154.189 13.6117 154.302 13.304L156.703 13.5739C156.551 14.2083 156.263 14.7623 155.837 15.2358C155.415 15.7045 154.875 16.0691 154.217 16.3295C153.559 16.5852 152.806 16.7131 151.959 16.7131ZM161.556 1.95455V16.5H158.985V1.95455H161.556ZM167.339 16.7202C166.647 16.7202 166.025 16.5971 165.471 16.3509C164.922 16.0999 164.486 15.7306 164.164 15.2429C163.847 14.7552 163.688 14.1539 163.688 13.4389C163.688 12.8234 163.802 12.3144 164.029 11.9119C164.256 11.5095 164.566 11.1875 164.959 10.946C165.352 10.7045 165.795 10.5223 166.288 10.3991C166.785 10.2713 167.298 10.179 167.829 10.1222C168.468 10.0559 168.986 9.99669 169.384 9.9446C169.782 9.88778 170.071 9.80256 170.251 9.68892C170.435 9.57055 170.528 9.38826 170.528 9.14205V9.09943C170.528 8.56439 170.369 8.15009 170.052 7.85653C169.734 7.56297 169.278 7.41619 168.681 7.41619C168.051 7.41619 167.552 7.5535 167.182 7.82812C166.818 8.10275 166.572 8.42708 166.444 8.80114L164.043 8.46023C164.233 7.79735 164.545 7.24337 164.981 6.7983C165.416 6.34848 165.949 6.01231 166.579 5.78977C167.208 5.5625 167.904 5.44886 168.667 5.44886C169.192 5.44886 169.716 5.51042 170.236 5.63352C170.757 5.75663 171.233 5.96023 171.664 6.24432C172.095 6.52367 172.44 6.90483 172.701 7.38778C172.966 7.87074 173.099 8.47443 173.099 9.19886V16.5H170.627V15.0014H170.542C170.386 15.3045 170.165 15.5885 169.881 15.8537C169.602 16.1141 169.249 16.3248 168.823 16.4858C168.402 16.642 167.907 16.7202 167.339 16.7202ZM168.006 14.831C168.522 14.831 168.97 14.7292 169.349 14.5256C169.727 14.3172 170.019 14.0426 170.222 13.7017C170.431 13.3608 170.535 12.9891 170.535 12.5866V11.3011C170.454 11.3674 170.317 11.429 170.123 11.4858C169.933 11.5426 169.72 11.5923 169.484 11.6349C169.247 11.6776 169.012 11.7154 168.78 11.7486C168.548 11.7817 168.347 11.8101 168.177 11.8338C167.793 11.8859 167.45 11.9711 167.147 12.0895C166.844 12.2079 166.605 12.3736 166.43 12.5866C166.254 12.795 166.167 13.0649 166.167 13.3963C166.167 13.8698 166.34 14.2273 166.685 14.4688C167.031 14.7102 167.471 14.831 168.006 14.831ZM178.823 16.7202C178.132 16.7202 177.509 16.5971 176.955 16.3509C176.406 16.0999 175.97 15.7306 175.648 15.2429C175.331 14.7552 175.172 14.1539 175.172 13.4389C175.172 12.8234 175.286 12.3144 175.513 11.9119C175.741 11.5095 176.051 11.1875 176.444 10.946C176.837 10.7045 177.279 10.5223 177.772 10.3991C178.269 10.2713 178.783 10.179 179.313 10.1222C179.952 10.0559 180.471 9.99669 180.868 9.9446C181.266 9.88778 181.555 9.80256 181.735 9.68892C181.92 9.57055 182.012 9.38826 182.012 9.14205V9.09943C182.012 8.56439 181.853 8.15009 181.536 7.85653C181.219 7.56297 180.762 7.41619 180.165 7.41619C179.536 7.41619 179.036 7.5535 178.667 7.82812C178.302 8.10275 178.056 8.42708 177.928 8.80114L175.528 8.46023C175.717 7.79735 176.029 7.24337 176.465 6.7983C176.901 6.34848 177.433 6.01231 178.063 5.78977C178.693 5.5625 179.389 5.44886 180.151 5.44886C180.677 5.44886 181.2 5.51042 181.721 5.63352C182.242 5.75663 182.717 5.96023 183.148 6.24432C183.579 6.52367 183.925 6.90483 184.185 7.38778C184.45 7.87074 184.583 8.47443 184.583 9.19886V16.5H182.111V15.0014H182.026C181.87 15.3045 181.65 15.5885 181.366 15.8537C181.086 16.1141 180.734 16.3248 180.307 16.4858C179.886 16.642 179.391 16.7202 178.823 16.7202ZM179.491 14.831C180.007 14.831 180.454 14.7292 180.833 14.5256C181.212 14.3172 181.503 14.0426 181.707 13.7017C181.915 13.3608 182.019 12.9891 182.019 12.5866V11.3011C181.939 11.3674 181.801 11.429 181.607 11.4858C181.418 11.5426 181.205 11.5923 180.968 11.6349C180.731 11.6776 180.497 11.7154 180.265 11.7486C180.033 11.7817 179.832 11.8101 179.661 11.8338C179.278 11.8859 178.934 11.9711 178.631 12.0895C178.328 12.2079 178.089 12.3736 177.914 12.5866C177.739 12.795 177.651 13.0649 177.651 13.3963C177.651 13.8698 177.824 14.2273 178.17 14.4688C178.515 14.7102 178.956 14.831 179.491 14.831ZM189.739 1.95455V16.5H187.168V1.95455H189.739Z" fill="white"/>
<path d="M49.4065 24.3182H50.6394V31.0597C50.6394 31.7557 50.4754 32.3771 50.1472 32.924C49.8224 33.4676 49.3634 33.8968 48.7701 34.2116C48.1768 34.5232 47.4808 34.679 46.682 34.679C45.8833 34.679 45.1872 34.5232 44.594 34.2116C44.0007 33.8968 43.54 33.4676 43.2119 32.924C42.8871 32.3771 42.7247 31.7557 42.7247 31.0597V24.3182H43.9576V30.9602C43.9576 31.4574 44.067 31.8999 44.2857 32.2876C44.5045 32.6721 44.816 32.9754 45.2204 33.1974C45.6281 33.4162 46.1153 33.5256 46.682 33.5256C47.2488 33.5256 47.736 33.4162 48.1437 33.1974C48.5514 32.9754 48.8629 32.6721 49.0783 32.2876C49.2971 31.8999 49.4065 31.4574 49.4065 30.9602V24.3182ZM53.6982 24.3182L56.3232 28.554H56.4027L59.0277 24.3182H60.4794L57.2777 29.4091L60.4794 34.5H59.0277L56.4027 30.3438H56.3232L53.6982 34.5H52.2465L55.5277 29.4091L52.2465 24.3182H53.6982ZM71.5897 26.8636C71.5301 26.3598 71.2881 25.9688 70.8639 25.6903C70.4396 25.4119 69.9193 25.2727 69.3028 25.2727C68.852 25.2727 68.4576 25.3456 68.1195 25.4915C67.7848 25.6373 67.5229 25.8378 67.334 26.093C67.1484 26.3482 67.0556 26.6383 67.0556 26.9631C67.0556 27.2348 67.1203 27.4685 67.2495 27.6641C67.3821 27.8563 67.5511 28.017 67.7566 28.1463C67.9621 28.2723 68.1775 28.3767 68.4029 28.4595C68.6283 28.5391 68.8354 28.6037 69.0244 28.6534L70.0585 28.9318C70.3236 29.0014 70.6186 29.0975 70.9434 29.2202C71.2715 29.3428 71.5847 29.5102 71.883 29.7223C72.1846 29.9311 72.4332 30.1996 72.6288 30.5277C72.8243 30.8558 72.9221 31.2585 72.9221 31.7358C72.9221 32.286 72.7779 32.7831 72.4896 33.2273C72.2045 33.6714 71.7869 34.0244 71.2367 34.2862C70.6899 34.5481 70.0253 34.679 69.2431 34.679C68.514 34.679 67.8826 34.5613 67.3489 34.326C66.8186 34.0907 66.401 33.7625 66.0961 33.3416C65.7945 32.9207 65.6238 32.4318 65.584 31.875H66.8568C66.8899 32.2595 67.0192 32.5777 67.2445 32.8295C67.4732 33.0781 67.7616 33.2637 68.1096 33.3864C68.4609 33.5057 68.8388 33.5653 69.2431 33.5653C69.7138 33.5653 70.1363 33.4891 70.5109 33.3366C70.8854 33.1809 71.182 32.9654 71.4008 32.6903C71.6195 32.4119 71.7289 32.0871 71.7289 31.7159C71.7289 31.3778 71.6345 31.1027 71.4455 30.8906C71.2566 30.6785 71.008 30.5062 70.6998 30.3736C70.3916 30.241 70.0585 30.125 69.7005 30.0256L68.4477 29.6676C67.6522 29.4389 67.0225 29.1125 66.5585 28.6882C66.0944 28.264 65.8624 27.7088 65.8624 27.0227C65.8624 26.4527 66.0166 25.9555 66.3248 25.5312C66.6363 25.1037 67.054 24.7723 67.5776 24.5369C68.1046 24.2983 68.6929 24.179 69.3426 24.179C69.9988 24.179 70.5821 24.2966 71.0926 24.532C71.603 24.764 72.0073 25.0821 72.3056 25.4865C72.6072 25.8909 72.7663 26.3499 72.7829 26.8636H71.5897ZM74.7902 37.3636V26.8636H75.9237V28.0767H76.0629C76.1491 27.9441 76.2684 27.7751 76.4209 27.5696C76.5766 27.3608 76.7987 27.1752 77.087 27.0128C77.3787 26.8471 77.7731 26.7642 78.2703 26.7642C78.9133 26.7642 79.48 26.925 79.9706 27.2464C80.4611 27.5679 80.8439 28.0237 81.119 28.6136C81.3941 29.2036 81.5316 29.8996 81.5316 30.7017C81.5316 31.5104 81.3941 32.2114 81.119 32.8047C80.8439 33.3946 80.4628 33.852 79.9755 34.1768C79.4883 34.4983 78.9265 34.6591 78.2902 34.6591C77.7996 34.6591 77.4069 34.5779 77.1119 34.4155C76.8169 34.2498 76.5899 34.0625 76.4308 33.8537C76.2717 33.6416 76.1491 33.4659 76.0629 33.3267H75.9635V37.3636H74.7902ZM75.9436 30.6818C75.9436 31.2585 76.0281 31.7673 76.1971 32.2081C76.3662 32.6456 76.6131 32.9886 76.9379 33.2372C77.2627 33.4825 77.6604 33.6051 78.1311 33.6051C78.6216 33.6051 79.0309 33.4759 79.3591 33.2173C79.6905 32.9555 79.9391 32.6042 80.1048 32.1634C80.2738 31.7192 80.3584 31.2254 80.3584 30.6818C80.3584 30.1449 80.2755 29.661 80.1098 29.2301C79.9474 28.7959 79.7004 28.4529 79.369 28.201C79.0409 27.9458 78.6282 27.8182 78.1311 27.8182C77.6538 27.8182 77.2528 27.9392 76.928 28.1811C76.6031 28.4197 76.3579 28.7545 76.1922 29.1854C76.0264 29.6129 75.9436 30.1117 75.9436 30.6818ZM86.5231 34.6591C85.7873 34.6591 85.1526 34.4967 84.619 34.1719C84.0887 33.8438 83.6794 33.3864 83.391 32.7997C83.106 32.2098 82.9635 31.5237 82.9635 30.7415C82.9635 29.9593 83.106 29.2699 83.391 28.6733C83.6794 28.0734 84.0804 27.6061 84.5941 27.2713C85.1112 26.9332 85.7144 26.7642 86.4038 26.7642C86.8015 26.7642 87.1943 26.8305 87.5821 26.9631C87.9699 27.0956 88.3228 27.3111 88.641 27.6094C88.9592 27.9044 89.2128 28.2955 89.4017 28.7827C89.5906 29.2699 89.6851 29.8698 89.6851 30.5824V31.0795H83.7987V30.0653H88.4919C88.4919 29.6345 88.4057 29.25 88.2334 28.9119C88.0643 28.5739 87.8224 28.3071 87.5075 28.1115C87.1959 27.916 86.8281 27.8182 86.4038 27.8182C85.9365 27.8182 85.5321 27.9342 85.1907 28.1662C84.8527 28.3949 84.5925 28.6932 84.4102 29.0611C84.2279 29.429 84.1368 29.8234 84.1368 30.2443V30.9205C84.1368 31.4972 84.2362 31.986 84.4351 32.3871C84.6372 32.7848 84.9173 33.0881 85.2753 33.2969C85.6332 33.5024 86.0492 33.6051 86.5231 33.6051C86.8314 33.6051 87.1098 33.562 87.3584 33.4759C87.6102 33.3864 87.8273 33.2538 88.0096 33.0781C88.1919 32.8991 88.3328 32.6771 88.4322 32.4119L89.5657 32.7301C89.4464 33.1146 89.2459 33.4527 88.9642 33.7443C88.6825 34.0327 88.3344 34.258 87.9201 34.4205C87.5058 34.5795 87.0402 34.6591 86.5231 34.6591ZM94.5721 34.6591C93.8562 34.6591 93.2397 34.4901 92.7227 34.152C92.2057 33.8139 91.8079 33.3482 91.5295 32.755C91.2511 32.1617 91.1119 31.4839 91.1119 30.7216C91.1119 29.946 91.2544 29.2616 91.5395 28.6683C91.8278 28.0717 92.2289 27.6061 92.7426 27.2713C93.2596 26.9332 93.8629 26.7642 94.5522 26.7642C95.0892 26.7642 95.5731 26.8636 96.004 27.0625C96.4348 27.2614 96.7878 27.5398 97.0629 27.8977C97.338 28.2557 97.5087 28.6733 97.575 29.1506H96.4017C96.3122 28.8026 96.1133 28.4943 95.8051 28.2259C95.5002 27.9541 95.0892 27.8182 94.5721 27.8182C94.1147 27.8182 93.7137 27.9375 93.369 28.1761C93.0276 28.4115 92.7608 28.7446 92.5686 29.1754C92.3797 29.603 92.2852 30.1051 92.2852 30.6818C92.2852 31.2718 92.378 31.7855 92.5636 32.223C92.7525 32.6605 93.0177 33.0002 93.3591 33.2422C93.7038 33.4841 94.1081 33.6051 94.5721 33.6051C94.8771 33.6051 95.1538 33.5521 95.4024 33.446C95.651 33.34 95.8614 33.1875 96.0338 32.9886C96.2061 32.7898 96.3288 32.5511 96.4017 32.2727H97.575C97.5087 32.7235 97.3446 33.1295 97.0828 33.4908C96.8243 33.8487 96.4812 34.1338 96.0537 34.3459C95.6294 34.5547 95.1356 34.6591 94.5721 34.6591ZM99.2902 34.5V26.8636H100.463V34.5H99.2902ZM99.8868 25.5909C99.6581 25.5909 99.4609 25.513 99.2951 25.3572C99.1327 25.2015 99.0515 25.0142 99.0515 24.7955C99.0515 24.5767 99.1327 24.3894 99.2951 24.2337C99.4609 24.0779 99.6581 24 99.8868 24C100.115 24 100.311 24.0779 100.473 24.2337C100.639 24.3894 100.722 24.5767 100.722 24.7955C100.722 25.0142 100.639 25.2015 100.473 25.3572C100.311 25.513 100.115 25.5909 99.8868 25.5909ZM104.86 34.679C104.376 34.679 103.937 34.5878 103.542 34.4055C103.148 34.2199 102.835 33.9531 102.602 33.6051C102.37 33.2538 102.254 32.8295 102.254 32.3324C102.254 31.8949 102.341 31.5402 102.513 31.2685C102.685 30.9934 102.916 30.7779 103.204 30.6222C103.492 30.4664 103.811 30.3504 104.159 30.2741C104.51 30.1946 104.863 30.1316 105.218 30.0852C105.682 30.0256 106.058 29.9808 106.346 29.951C106.638 29.9179 106.85 29.8632 106.982 29.7869C107.118 29.7107 107.186 29.5781 107.186 29.3892V29.3494C107.186 28.8589 107.052 28.4777 106.784 28.206C106.518 27.9342 106.116 27.7983 105.576 27.7983C105.015 27.7983 104.576 27.9209 104.258 28.1662C103.94 28.4115 103.716 28.6733 103.587 28.9517L102.473 28.554C102.672 28.09 102.937 27.7287 103.269 27.4702C103.603 27.2083 103.968 27.026 104.362 26.9233C104.76 26.8172 105.151 26.7642 105.536 26.7642C105.781 26.7642 106.063 26.794 106.381 26.8537C106.702 26.91 107.012 27.0277 107.311 27.2067C107.612 27.3857 107.862 27.6558 108.061 28.017C108.26 28.3783 108.36 28.8622 108.36 29.4688V34.5H107.186V33.4659H107.127C107.047 33.6316 106.915 33.8089 106.729 33.9979C106.543 34.1868 106.296 34.3475 105.988 34.4801C105.68 34.6127 105.304 34.679 104.86 34.679ZM105.039 33.625C105.503 33.625 105.894 33.5339 106.212 33.3516C106.533 33.1693 106.775 32.9339 106.938 32.6456C107.103 32.3572 107.186 32.054 107.186 31.7358V30.6619C107.137 30.7216 107.027 30.7763 106.858 30.826C106.692 30.8724 106.5 30.9138 106.281 30.9503C106.066 30.9834 105.856 31.0133 105.65 31.0398C105.448 31.063 105.284 31.0829 105.158 31.0994C104.853 31.1392 104.568 31.2038 104.303 31.2933C104.041 31.3795 103.829 31.5104 103.666 31.6861C103.507 31.8584 103.428 32.0937 103.428 32.392C103.428 32.7997 103.579 33.108 103.88 33.3168C104.185 33.5223 104.571 33.625 105.039 33.625ZM111.674 24.3182V34.5H110.501V24.3182H111.674ZM113.823 34.5V26.8636H114.997V34.5H113.823ZM114.42 25.5909C114.191 25.5909 113.994 25.513 113.828 25.3572C113.666 25.2015 113.585 25.0142 113.585 24.7955C113.585 24.5767 113.666 24.3894 113.828 24.2337C113.994 24.0779 114.191 24 114.42 24C114.649 24 114.844 24.0779 115.007 24.2337C115.172 24.3894 115.255 24.5767 115.255 24.7955C115.255 25.0142 115.172 25.2015 115.007 25.3572C114.844 25.513 114.649 25.5909 114.42 25.5909ZM122.555 28.5739L121.501 28.8722C121.434 28.6965 121.337 28.5258 121.207 28.3601C121.081 28.1911 120.909 28.0518 120.69 27.9425C120.472 27.8331 120.192 27.7784 119.85 27.7784C119.383 27.7784 118.993 27.8861 118.682 28.1016C118.374 28.3137 118.22 28.5838 118.22 28.9119C118.22 29.2036 118.326 29.4339 118.538 29.603C118.75 29.772 119.081 29.9129 119.532 30.0256L120.666 30.304C121.348 30.4697 121.857 30.7232 122.192 31.0646C122.527 31.4027 122.694 31.8385 122.694 32.3722C122.694 32.8097 122.568 33.2008 122.316 33.5455C122.068 33.8902 121.72 34.1619 121.272 34.3608C120.825 34.5597 120.304 34.6591 119.711 34.6591C118.932 34.6591 118.287 34.4901 117.777 34.152C117.267 33.8139 116.943 33.3201 116.808 32.6705L117.921 32.392C118.027 32.803 118.228 33.1113 118.523 33.3168C118.821 33.5223 119.211 33.625 119.691 33.625C120.238 33.625 120.672 33.509 120.994 33.277C121.318 33.0417 121.481 32.7599 121.481 32.4318C121.481 32.1667 121.388 31.9446 121.202 31.7656C121.017 31.5833 120.732 31.4474 120.347 31.358L119.075 31.0597C118.375 30.8939 117.862 30.6371 117.533 30.2891C117.209 29.9377 117.046 29.4986 117.046 28.9716C117.046 28.5407 117.167 28.1596 117.409 27.8281C117.654 27.4967 117.987 27.2365 118.408 27.0476C118.833 26.8587 119.313 26.7642 119.85 26.7642C120.606 26.7642 121.199 26.9299 121.63 27.2614C122.064 27.5928 122.372 28.0303 122.555 28.5739ZM127.781 26.8636V27.858H123.824V26.8636H127.781ZM124.977 25.0341H126.15V32.3125C126.15 32.6439 126.198 32.8925 126.295 33.0582C126.394 33.2206 126.52 33.33 126.672 33.3864C126.828 33.4394 126.992 33.4659 127.165 33.4659C127.294 33.4659 127.4 33.4593 127.483 33.446C127.566 33.4295 127.632 33.4162 127.682 33.4062L127.92 34.4602C127.841 34.4901 127.73 34.5199 127.587 34.5497C127.445 34.5829 127.264 34.5994 127.045 34.5994C126.714 34.5994 126.389 34.5282 126.071 34.3857C125.756 34.2431 125.494 34.026 125.285 33.7344C125.08 33.4427 124.977 33.0748 124.977 32.6307V25.0341Z" fill="white" fill-opacity="0.6"/>
<defs>
<linearGradient id="paint0_linear_190_820" x1="0" y1="18" x2="31.4918" y2="18" gradientUnits="userSpaceOnUse">
<stop stop-color="#ED0C93"/>
<stop offset="1" stop-color="#C80CED"/>
</linearGradient>
<linearGradient id="paint1_linear_190_820" x1="0" y1="18" x2="31.4918" y2="18" gradientUnits="userSpaceOnUse">
<stop stop-color="#ED0C93"/>
<stop offset="1" stop-color="#C80CED"/>
</linearGradient>
<linearGradient id="paint2_linear_190_820" x1="6.74805" y1="18" x2="24.7434" y2="18" gradientUnits="userSpaceOnUse">
<stop stop-color="#ED0C93"/>
<stop offset="1" stop-color="#C80CED"/>
</linearGradient>
<linearGradient id="paint3_linear_190_820" x1="6.74805" y1="18" x2="24.7434" y2="18" gradientUnits="userSpaceOnUse">
<stop stop-color="#ED0C93"/>
<stop offset="1" stop-color="#C80CED"/>
</linearGradient>
</defs>
</svg>
