<svg width="72" height="73" viewBox="0 0 72 73" fill="none" xmlns="http://www.w3.org/2000/svg">
<g clip-path="url(#clip0_808_5153)">
<path d="M56 1.13989H16C7.43959 1.13989 0.5 8.07948 0.5 16.6399V56.6399C0.5 65.2003 7.43959 72.1399 16 72.1399H56C64.5604 72.1399 71.5 65.2003 71.5 56.6399V16.6399C71.5 8.07948 64.5604 1.13989 56 1.13989Z" stroke="white"/>
<path d="M48.2583 36.7173C47.9611 36.7173 47.6672 36.7664 47.3699 36.8156C46.2369 32.3788 42.6394 29.0287 38.1536 28.2385C37.9579 28.1894 37.7589 28.1894 37.5624 28.1403C37.6116 27.0563 37.6607 25.7733 39.2866 24.6402L38.9894 24C38.9894 24 35.8357 24.9857 35.4893 27.6957C35.3428 26.9581 33.8634 26.0206 33.1223 25.8707L32.776 26.4618C33.4162 26.8565 33.8599 27.5458 33.9582 28.2868C29.4233 29.0769 25.8249 32.4271 24.6927 36.8638C22.6721 36.371 20.6015 37.6014 20.1086 39.6229C19.6157 41.6435 20.8462 43.7141 22.8677 44.207C23.6578 44.4026 24.4446 44.3535 25.1855 44.0604C25.5319 44.8506 25.9232 45.6373 26.416 46.3266L29.5698 44.2078L29.5207 44.1587C28.6323 42.9282 28.1394 41.4487 28.0903 39.9701C27.992 38.2459 28.4366 36.5191 29.5207 35.5334C31.7868 33.6101 34.2512 34.4985 35.8281 36.3235H36.2227C37.7504 34.4494 40.2157 33.6136 42.5301 35.5334C43.6141 36.5191 44.0579 38.2434 43.9605 39.9701C43.9114 41.4978 43.4185 42.9282 42.5301 44.1587L42.481 44.2078L45.6347 46.3266C46.1276 45.6382 46.5231 44.848 46.8652 44.0604C48.7884 44.7981 51.0055 43.8648 51.7466 41.9416C52.4875 40.0184 51.5509 37.8013 49.6277 37.0603C49.1839 36.8156 48.6911 36.7139 48.2465 36.7139L48.2566 36.7173H48.2583ZM23.7095 41.6477C23.1184 41.5986 22.6255 41.1057 22.6746 40.4655C22.7237 39.8744 23.1675 39.4306 23.7095 39.3815C23.9542 39.3815 24.1532 39.4306 24.3497 39.5771C24.3497 40.1683 24.3988 40.7593 24.4479 41.353C24.2523 41.5487 24.0042 41.6503 23.7103 41.6503V41.6469L23.7095 41.6477ZM48.3074 41.6477C48.0102 41.6477 47.7654 41.5495 47.5698 41.3505C47.619 40.7593 47.6681 40.1683 47.6681 39.5746C48.1609 39.2283 48.8503 39.379 49.1958 39.8719C49.3423 40.0675 49.3914 40.2665 49.3914 40.5121C49.4405 41.1523 48.8986 41.6452 48.3074 41.6452V41.6485V41.6477Z" fill="white"/>
</g>
<defs>
<clipPath id="clip0_808_5153">
<rect width="72" height="73" fill="white"/>
</clipPath>
</defs>
</svg>
