<svg width="72" height="73" viewBox="0 0 72 73" fill="none" xmlns="http://www.w3.org/2000/svg">
<rect x="0.5" y="1.13989" width="71" height="71" rx="15.5" stroke="white"/>
<path fill-rule="evenodd" clip-rule="evenodd" d="M37.0425 49.9679L20 46.9779V25.6299L37.0425 22.6399V49.9679ZM29.34 33.2484H31.8823L31.8822 31.7225H25.2633V33.2484H27.8056V40.6763H29.34V33.2484Z" fill="white"/>
<path d="M40.6002 46.2635C39.7519 46.2646 38.9291 45.9738 38.2699 45.4398L38.2698 33.6294H44.3114V42.5524C44.3114 44.602 42.6498 46.2635 40.6002 46.2635Z" fill="white"/>
<path d="M43.5489 29.2928C43.5489 30.9214 42.2287 32.2414 40.6002 32.2414C39.6521 32.2414 38.8093 31.7936 38.2699 31.0983V27.4873C38.8092 26.7921 39.6521 26.3442 40.6002 26.3442C42.2288 26.3442 43.5489 27.6644 43.5489 29.2928Z" fill="white"/>
<path d="M45.5318 35.5413H51.94L51.9998 41.0085C52.0051 41.4938 51.9141 41.9754 51.732 42.4253C51.55 42.8752 51.2805 43.2845 50.9391 43.6295C50.5978 43.9746 50.1915 44.2485 49.7436 44.4355C49.2957 44.6224 48.8151 44.7187 48.3298 44.7187C47.2093 44.7187 46.2054 44.2159 45.5318 43.4231V35.5413Z" fill="white"/>
<path d="M51.1861 31.2516C51.1861 32.8623 49.8804 34.168 48.2697 34.168C46.659 34.168 45.3533 32.8623 45.3533 31.2516C45.3533 29.6409 46.659 28.3352 48.2697 28.3352C49.8804 28.3352 51.1861 29.6409 51.1861 31.2516Z" fill="white"/>
</svg>
