<svg width="72" height="73" viewBox="0 0 72 73" fill="none" xmlns="http://www.w3.org/2000/svg">
<rect x="0.5" y="1.13989" width="71" height="71" rx="15.5" stroke="white"/>
<path d="M36 20.6399H20V36.6399C20 45.4764 27.1634 52.6399 36 52.6399V20.6399Z" fill="white"/>
<path d="M52 28.6399C52 33.0582 48.4183 36.6399 44 36.6399C39.5817 36.6399 36 33.0582 36 28.6399C36 24.2216 39.5817 20.6399 44 20.6399C48.4183 20.6399 52 24.2216 52 28.6399Z" fill="white"/>
<path fill-rule="evenodd" clip-rule="evenodd" d="M36.7143 51.9092C44.588 51.547 50.9071 45.2279 51.2693 37.3542H36.7143V51.9092ZM36.7143 52.6242C36.4775 52.6346 36.2394 52.6399 36 52.6399V36.6399H52C52 36.8793 51.9947 37.1174 51.9843 37.3542C51.6211 45.6225 44.9826 52.261 36.7143 52.6242Z" fill="white"/>
</svg>
